<?xml version="1.0" encoding="UTF-8" standalone="no"?>
<!DOCTYPE svg PUBLIC "-//W3C//DTD SVG 1.1//EN"
 "http://www.w3.org/Graphics/SVG/1.1/DTD/svg11.dtd">
<!-- Generated by graphviz version 2.43.0 (0)
 -->
<!-- Title: %3 Pages: 1 -->
<svg width="1571pt" height="210pt"
 viewBox="0.00 0.00 1570.79 210.00" xmlns="http://www.w3.org/2000/svg" xmlns:xlink="http://www.w3.org/1999/xlink">
<g id="graph0" class="graph" transform="scale(1 1) rotate(0) translate(4 206)">
<title>%3</title>
<polygon fill="white" stroke="transparent" points="-4,4 -4,-206 1566.79,-206 1566.79,4 -4,4"/>
<!-- 139636706033168 -->
<g id="node1" class="node">
<title>139636706033168</title>
<polygon fill="none" stroke="black" points="334.5,-165.5 334.5,-201.5 540.5,-201.5 540.5,-165.5 334.5,-165.5"/>
<text text-anchor="middle" x="385.5" y="-179.8" font-family="Times,serif" font-size="14.00">data 0.0000</text>
<polyline fill="none" stroke="black" points="436.5,-165.5 436.5,-201.5 "/>
<text text-anchor="middle" x="488.5" y="-179.8" font-family="Times,serif" font-size="14.00">grad 1.0000</text>
</g>
<!-- 139636706448976+ -->
<g id="node4" class="node">
<title>139636706448976+</title>
<ellipse fill="none" stroke="black" cx="606" cy="-128.5" rx="27" ry="18"/>
<text text-anchor="middle" x="606" y="-124.8" font-family="Times,serif" font-size="14.00">+</text>
</g>
<!-- 139636706033168&#45;&gt;139636706448976+ -->
<g id="edge14" class="edge">
<title>139636706033168&#45;&gt;139636706448976+</title>
<path fill="none" stroke="black" d="M514.59,-165.47C524.23,-162.71 533.9,-159.7 543,-156.5 553.55,-152.78 564.79,-147.99 574.75,-143.41"/>
<polygon fill="black" stroke="black" points="576.28,-146.56 583.85,-139.14 573.31,-140.22 576.28,-146.56"/>
</g>
<!-- 139636706021968 -->
<g id="node2" class="node">
<title>139636706021968</title>
<polygon fill="none" stroke="black" points="332.5,-55.5 332.5,-91.5 542.5,-91.5 542.5,-55.5 332.5,-55.5"/>
<text text-anchor="middle" x="383.5" y="-69.8" font-family="Times,serif" font-size="14.00">data 0.0665</text>
<polyline fill="none" stroke="black" points="434.5,-55.5 434.5,-91.5 "/>
<text text-anchor="middle" x="488.5" y="-69.8" font-family="Times,serif" font-size="14.00">grad &#45;2.0000</text>
</g>
<!-- 139636706448656* -->
<g id="node11" class="node">
<title>139636706448656*</title>
<ellipse fill="none" stroke="black" cx="606" cy="-73.5" rx="27" ry="18"/>
<text text-anchor="middle" x="606" y="-69.8" font-family="Times,serif" font-size="14.00">*</text>
</g>
<!-- 139636706021968&#45;&gt;139636706448656* -->
<g id="edge10" class="edge">
<title>139636706021968&#45;&gt;139636706448656*</title>
<path fill="none" stroke="black" d="M542.53,-73.5C551.85,-73.5 560.8,-73.5 568.88,-73.5"/>
<polygon fill="black" stroke="black" points="568.94,-77 578.94,-73.5 568.94,-70 568.94,-77"/>
</g>
<!-- 139636706448976 -->
<g id="node3" class="node">
<title>139636706448976</title>
<polygon fill="none" stroke="black" points="671.5,-110.5 671.5,-146.5 877.5,-146.5 877.5,-110.5 671.5,-110.5"/>
<text text-anchor="middle" x="722.5" y="-124.8" font-family="Times,serif" font-size="14.00">data 0.2355</text>
<polyline fill="none" stroke="black" points="773.5,-110.5 773.5,-146.5 "/>
<text text-anchor="middle" x="825.5" y="-124.8" font-family="Times,serif" font-size="14.00">grad 1.0000</text>
</g>
<!-- 139636706449104+ -->
<g id="node9" class="node">
<title>139636706449104+</title>
<ellipse fill="none" stroke="black" cx="943" cy="-100.5" rx="27" ry="18"/>
<text text-anchor="middle" x="943" y="-96.8" font-family="Times,serif" font-size="14.00">+</text>
</g>
<!-- 139636706448976&#45;&gt;139636706449104+ -->
<g id="edge11" class="edge">
<title>139636706448976&#45;&gt;139636706449104+</title>
<path fill="none" stroke="black" d="M877.63,-111.33C887.87,-109.6 897.71,-107.95 906.48,-106.47"/>
<polygon fill="black" stroke="black" points="907.32,-109.88 916.6,-104.77 906.16,-102.98 907.32,-109.88"/>
</g>
<!-- 139636706448976+&#45;&gt;139636706448976 -->
<g id="edge1" class="edge">
<title>139636706448976+&#45;&gt;139636706448976</title>
<path fill="none" stroke="black" d="M633.02,-128.5C641.26,-128.5 650.96,-128.5 661.35,-128.5"/>
<polygon fill="black" stroke="black" points="661.49,-132 671.49,-128.5 661.49,-125 661.49,-132"/>
</g>
<!-- 139636706021264 -->
<g id="node5" class="node">
<title>139636706021264</title>
<polygon fill="none" stroke="black" points="0,-138.5 0,-174.5 206,-174.5 206,-138.5 0,-138.5"/>
<text text-anchor="middle" x="51" y="-152.8" font-family="Times,serif" font-size="14.00">data 1.0000</text>
<polyline fill="none" stroke="black" points="102,-138.5 102,-174.5 "/>
<text text-anchor="middle" x="154" y="-152.8" font-family="Times,serif" font-size="14.00">grad 0.2355</text>
</g>
<!-- 139636706448016* -->
<g id="node7" class="node">
<title>139636706448016*</title>
<ellipse fill="none" stroke="black" cx="269" cy="-128.5" rx="27" ry="18"/>
<text text-anchor="middle" x="269" y="-124.8" font-family="Times,serif" font-size="14.00">*</text>
</g>
<!-- 139636706021264&#45;&gt;139636706448016* -->
<g id="edge7" class="edge">
<title>139636706021264&#45;&gt;139636706448016*</title>
<path fill="none" stroke="black" d="M206.47,-139.01C215.74,-137.42 224.64,-135.9 232.65,-134.54"/>
<polygon fill="black" stroke="black" points="233.36,-137.97 242.63,-132.83 232.18,-131.07 233.36,-137.97"/>
</g>
<!-- 139636706448016 -->
<g id="node6" class="node">
<title>139636706448016</title>
<polygon fill="none" stroke="black" points="334.5,-110.5 334.5,-146.5 540.5,-146.5 540.5,-110.5 334.5,-110.5"/>
<text text-anchor="middle" x="385.5" y="-124.8" font-family="Times,serif" font-size="14.00">data 0.2355</text>
<polyline fill="none" stroke="black" points="436.5,-110.5 436.5,-146.5 "/>
<text text-anchor="middle" x="488.5" y="-124.8" font-family="Times,serif" font-size="14.00">grad 1.0000</text>
</g>
<!-- 139636706448016&#45;&gt;139636706448976+ -->
<g id="edge8" class="edge">
<title>139636706448016&#45;&gt;139636706448976+</title>
<path fill="none" stroke="black" d="M540.63,-128.5C550.68,-128.5 560.34,-128.5 568.99,-128.5"/>
<polygon fill="black" stroke="black" points="568.99,-132 578.99,-128.5 568.99,-125 568.99,-132"/>
</g>
<!-- 139636706448016*&#45;&gt;139636706448016 -->
<g id="edge2" class="edge">
<title>139636706448016*&#45;&gt;139636706448016</title>
<path fill="none" stroke="black" d="M296.02,-128.5C304.26,-128.5 313.96,-128.5 324.35,-128.5"/>
<polygon fill="black" stroke="black" points="324.49,-132 334.49,-128.5 324.49,-125 324.49,-132"/>
</g>
<!-- 139636706449104 -->
<g id="node8" class="node">
<title>139636706449104</title>
<polygon fill="none" stroke="black" points="1006,-82.5 1006,-118.5 1212,-118.5 1212,-82.5 1006,-82.5"/>
<text text-anchor="middle" x="1057" y="-96.8" font-family="Times,serif" font-size="14.00">data 0.1024</text>
<polyline fill="none" stroke="black" points="1108,-82.5 1108,-118.5 "/>
<text text-anchor="middle" x="1160" y="-96.8" font-family="Times,serif" font-size="14.00">grad 1.0000</text>
</g>
<!-- 139636706449168ReLU -->
<g id="node13" class="node">
<title>139636706449168ReLU</title>
<ellipse fill="none" stroke="black" cx="1284.4" cy="-100.5" rx="36.29" ry="18"/>
<text text-anchor="middle" x="1284.4" y="-96.8" font-family="Times,serif" font-size="14.00">ReLU</text>
</g>
<!-- 139636706449104&#45;&gt;139636706449168ReLU -->
<g id="edge9" class="edge">
<title>139636706449104&#45;&gt;139636706449168ReLU</title>
<path fill="none" stroke="black" d="M1212.12,-100.5C1221.01,-100.5 1229.68,-100.5 1237.74,-100.5"/>
<polygon fill="black" stroke="black" points="1237.95,-104 1247.95,-100.5 1237.95,-97 1237.95,-104"/>
</g>
<!-- 139636706449104+&#45;&gt;139636706449104 -->
<g id="edge3" class="edge">
<title>139636706449104+&#45;&gt;139636706449104</title>
<path fill="none" stroke="black" d="M970.35,-100.5C977.8,-100.5 986.4,-100.5 995.61,-100.5"/>
<polygon fill="black" stroke="black" points="995.8,-104 1005.8,-100.5 995.8,-97 995.8,-104"/>
</g>
<!-- 139636706448656 -->
<g id="node10" class="node">
<title>139636706448656</title>
<polygon fill="none" stroke="black" points="669,-55.5 669,-91.5 880,-91.5 880,-55.5 669,-55.5"/>
<text text-anchor="middle" x="722.5" y="-69.8" font-family="Times,serif" font-size="14.00">data &#45;0.1331</text>
<polyline fill="none" stroke="black" points="776,-55.5 776,-91.5 "/>
<text text-anchor="middle" x="828" y="-69.8" font-family="Times,serif" font-size="14.00">grad 1.0000</text>
</g>
<!-- 139636706448656&#45;&gt;139636706449104+ -->
<g id="edge12" class="edge">
<title>139636706448656&#45;&gt;139636706449104+</title>
<path fill="none" stroke="black" d="M880,-90.45C889.36,-91.96 898.33,-93.42 906.41,-94.73"/>
<polygon fill="black" stroke="black" points="906.03,-98.21 916.46,-96.36 907.15,-91.3 906.03,-98.21"/>
</g>
<!-- 139636706448656*&#45;&gt;139636706448656 -->
<g id="edge4" class="edge">
<title>139636706448656*&#45;&gt;139636706448656</title>
<path fill="none" stroke="black" d="M633.02,-73.5C640.62,-73.5 649.46,-73.5 658.93,-73.5"/>
<polygon fill="black" stroke="black" points="659,-77 669,-73.5 659,-70 659,-77"/>
</g>
<!-- 139636706449168 -->
<g id="node12" class="node">
<title>139636706449168</title>
<polygon fill="none" stroke="black" points="1356.79,-82.5 1356.79,-118.5 1562.79,-118.5 1562.79,-82.5 1356.79,-82.5"/>
<text text-anchor="middle" x="1407.79" y="-96.8" font-family="Times,serif" font-size="14.00">data 0.1024</text>
<polyline fill="none" stroke="black" points="1458.79,-82.5 1458.79,-118.5 "/>
<text text-anchor="middle" x="1510.79" y="-96.8" font-family="Times,serif" font-size="14.00">grad 1.0000</text>
</g>
<!-- 139636706449168ReLU&#45;&gt;139636706449168 -->
<g id="edge5" class="edge">
<title>139636706449168ReLU&#45;&gt;139636706449168</title>
<path fill="none" stroke="black" d="M1320.9,-100.5C1328.76,-100.5 1337.5,-100.5 1346.64,-100.5"/>
<polygon fill="black" stroke="black" points="1346.71,-104 1356.71,-100.5 1346.71,-97 1346.71,-104"/>
</g>
<!-- 139636706448720 -->
<g id="node14" class="node">
<title>139636706448720</title>
<polygon fill="none" stroke="black" points="332,-0.5 332,-36.5 543,-36.5 543,-0.5 332,-0.5"/>
<text text-anchor="middle" x="385.5" y="-14.8" font-family="Times,serif" font-size="14.00">data &#45;2.0000</text>
<polyline fill="none" stroke="black" points="439,-0.5 439,-36.5 "/>
<text text-anchor="middle" x="491" y="-14.8" font-family="Times,serif" font-size="14.00">grad 0.0665</text>
</g>
<!-- 139636706448720&#45;&gt;139636706448656* -->
<g id="edge6" class="edge">
<title>139636706448720&#45;&gt;139636706448656*</title>
<path fill="none" stroke="black" d="M511.44,-36.55C522.11,-39.62 532.89,-42.97 543,-46.5 553.31,-50.1 564.31,-54.65 574.14,-58.98"/>
<polygon fill="black" stroke="black" points="572.95,-62.29 583.51,-63.2 575.83,-55.9 572.95,-62.29"/>
</g>
<!-- 139636706018704 -->
<g id="node15" class="node">
<title>139636706018704</title>
<polygon fill="none" stroke="black" points="0,-83.5 0,-119.5 206,-119.5 206,-83.5 0,-83.5"/>
<text text-anchor="middle" x="51" y="-97.8" font-family="Times,serif" font-size="14.00">data 0.2355</text>
<polyline fill="none" stroke="black" points="102,-83.5 102,-119.5 "/>
<text text-anchor="middle" x="154" y="-97.8" font-family="Times,serif" font-size="14.00">grad 1.0000</text>
</g>
<!-- 139636706018704&#45;&gt;139636706448016* -->
<g id="edge13" class="edge">
<title>139636706018704&#45;&gt;139636706448016*</title>
<path fill="none" stroke="black" d="M206.47,-118.37C215.74,-119.9 224.64,-121.36 232.65,-122.68"/>
<polygon fill="black" stroke="black" points="232.19,-126.15 242.63,-124.32 233.33,-119.24 232.19,-126.15"/>
</g>
</g>
</svg>
