<?xml version="1.0" encoding="UTF-8" standalone="no"?>
<!DOCTYPE svg PUBLIC "-//W3C//DTD SVG 1.1//EN"
 "http://www.w3.org/Graphics/SVG/1.1/DTD/svg11.dtd">
<!-- Generated by graphviz version 2.43.0 (0)
 -->
<!-- Title: %3 Pages: 1 -->
<svg width="1936pt" height="210pt"
 viewBox="0.00 0.00 1936.02 210.00" xmlns="http://www.w3.org/2000/svg" xmlns:xlink="http://www.w3.org/1999/xlink">
<g id="graph0" class="graph" transform="scale(1 1) rotate(0) translate(4 206)">
<title>%3</title>
<polygon fill="white" stroke="transparent" points="-4,4 -4,-206 1932.02,-206 1932.02,4 -4,4"/>
<!-- 140188142757904 -->
<g id="node1" class="node">
<title>140188142757904</title>
<polygon fill="none" stroke="black" points="429.38,-165.5 429.38,-201.5 581.38,-201.5 581.38,-165.5 429.38,-165.5"/>
<text text-anchor="middle" x="505.38" y="-179.8" font-family="Times,serif" font-size="14.00">140188142757904</text>
</g>
<!-- 140188142718672* -->
<g id="node6" class="node">
<title>140188142718672*</title>
<ellipse fill="none" stroke="black" cx="723.97" cy="-128.5" rx="102.88" ry="18"/>
<text text-anchor="middle" x="723.97" y="-124.8" font-family="Times,serif" font-size="14.00">140188142718672*</text>
</g>
<!-- 140188142757904&#45;&gt;140188142718672* -->
<g id="edge13" class="edge">
<title>140188142757904&#45;&gt;140188142718672*</title>
<path fill="none" stroke="black" d="M577.3,-165.49C602.24,-159.16 630.2,-152.06 654.9,-145.79"/>
<polygon fill="black" stroke="black" points="656.07,-149.1 664.9,-143.25 654.35,-142.31 656.07,-149.1"/>
</g>
<!-- 140188142753680 -->
<g id="node2" class="node">
<title>140188142753680</title>
<polygon fill="none" stroke="black" points="429.38,-55.5 429.38,-91.5 581.38,-91.5 581.38,-55.5 429.38,-55.5"/>
<text text-anchor="middle" x="505.38" y="-69.8" font-family="Times,serif" font-size="14.00">140188142753680</text>
</g>
<!-- 140188142718288+ -->
<g id="node12" class="node">
<title>140188142718288+</title>
<ellipse fill="none" stroke="black" cx="723.97" cy="-73.5" rx="106.68" ry="18"/>
<text text-anchor="middle" x="723.97" y="-69.8" font-family="Times,serif" font-size="14.00">140188142718288+</text>
</g>
<!-- 140188142753680&#45;&gt;140188142718288+ -->
<g id="edge7" class="edge">
<title>140188142753680&#45;&gt;140188142718288+</title>
<path fill="none" stroke="black" d="M581.53,-73.5C589.78,-73.5 598.32,-73.5 606.93,-73.5"/>
<polygon fill="black" stroke="black" points="607.04,-77 617.04,-73.5 607.04,-70 607.04,-77"/>
</g>
<!-- 140188142753680* -->
<g id="node3" class="node">
<title>140188142753680*</title>
<ellipse fill="none" stroke="black" cx="290.69" cy="-73.5" rx="102.88" ry="18"/>
<text text-anchor="middle" x="290.69" y="-69.8" font-family="Times,serif" font-size="14.00">140188142753680*</text>
</g>
<!-- 140188142753680*&#45;&gt;140188142753680 -->
<g id="edge1" class="edge">
<title>140188142753680*&#45;&gt;140188142753680</title>
<path fill="none" stroke="black" d="M393.68,-73.5C402.16,-73.5 410.69,-73.5 419.04,-73.5"/>
<polygon fill="black" stroke="black" points="419.11,-77 429.11,-73.5 419.11,-70 419.11,-77"/>
</g>
<!-- 140188142754192 -->
<g id="node4" class="node">
<title>140188142754192</title>
<polygon fill="none" stroke="black" points="429.38,-0.5 429.38,-36.5 581.38,-36.5 581.38,-0.5 429.38,-0.5"/>
<text text-anchor="middle" x="505.38" y="-14.8" font-family="Times,serif" font-size="14.00">140188142754192</text>
</g>
<!-- 140188142754192&#45;&gt;140188142718288+ -->
<g id="edge6" class="edge">
<title>140188142754192&#45;&gt;140188142718288+</title>
<path fill="none" stroke="black" d="M577.3,-36.51C602.02,-42.79 629.71,-49.82 654.25,-56.05"/>
<polygon fill="black" stroke="black" points="653.65,-59.51 664.2,-58.58 655.37,-52.72 653.65,-59.51"/>
</g>
<!-- 140188142718672 -->
<g id="node5" class="node">
<title>140188142718672</title>
<polygon fill="none" stroke="black" points="866.56,-110.5 866.56,-146.5 1018.56,-146.5 1018.56,-110.5 866.56,-110.5"/>
<text text-anchor="middle" x="942.56" y="-124.8" font-family="Times,serif" font-size="14.00">140188142718672</text>
</g>
<!-- 140188142718800+ -->
<g id="node10" class="node">
<title>140188142718800+</title>
<ellipse fill="none" stroke="black" cx="1161.15" cy="-100.5" rx="106.68" ry="18"/>
<text text-anchor="middle" x="1161.15" y="-96.8" font-family="Times,serif" font-size="14.00">140188142718800+</text>
</g>
<!-- 140188142718672&#45;&gt;140188142718800+ -->
<g id="edge9" class="edge">
<title>140188142718672&#45;&gt;140188142718800+</title>
<path fill="none" stroke="black" d="M1018.71,-118.79C1033.84,-116.83 1049.93,-114.75 1065.63,-112.72"/>
<polygon fill="black" stroke="black" points="1066.41,-116.15 1075.87,-111.4 1065.51,-109.21 1066.41,-116.15"/>
</g>
<!-- 140188142718672*&#45;&gt;140188142718672 -->
<g id="edge2" class="edge">
<title>140188142718672*&#45;&gt;140188142718672</title>
<path fill="none" stroke="black" d="M826.93,-128.5C836.68,-128.5 846.49,-128.5 856.06,-128.5"/>
<polygon fill="black" stroke="black" points="856.33,-132 866.33,-128.5 856.33,-125 856.33,-132"/>
</g>
<!-- 140188142752016 -->
<g id="node7" class="node">
<title>140188142752016</title>
<polygon fill="none" stroke="black" points="429.38,-110.5 429.38,-146.5 581.38,-146.5 581.38,-110.5 429.38,-110.5"/>
<text text-anchor="middle" x="505.38" y="-124.8" font-family="Times,serif" font-size="14.00">140188142752016</text>
</g>
<!-- 140188142752016&#45;&gt;140188142718672* -->
<g id="edge11" class="edge">
<title>140188142752016&#45;&gt;140188142718672*</title>
<path fill="none" stroke="black" d="M581.53,-128.5C591.15,-128.5 601.16,-128.5 611.2,-128.5"/>
<polygon fill="black" stroke="black" points="611.25,-132 621.25,-128.5 611.25,-125 611.25,-132"/>
</g>
<!-- 140188142758288 -->
<g id="node8" class="node">
<title>140188142758288</title>
<polygon fill="none" stroke="black" points="0,-83.5 0,-119.5 152,-119.5 152,-83.5 0,-83.5"/>
<text text-anchor="middle" x="76" y="-97.8" font-family="Times,serif" font-size="14.00">140188142758288</text>
</g>
<!-- 140188142758288&#45;&gt;140188142753680* -->
<g id="edge8" class="edge">
<title>140188142758288&#45;&gt;140188142753680*</title>
<path fill="none" stroke="black" d="M152.29,-91.59C167.09,-89.64 182.77,-87.58 198.04,-85.57"/>
<polygon fill="black" stroke="black" points="198.55,-89.03 208,-84.25 197.63,-82.09 198.55,-89.03"/>
</g>
<!-- 140188142718800 -->
<g id="node9" class="node">
<title>140188142718800</title>
<polygon fill="none" stroke="black" points="1303.74,-82.5 1303.74,-118.5 1455.74,-118.5 1455.74,-82.5 1303.74,-82.5"/>
<text text-anchor="middle" x="1379.74" y="-96.8" font-family="Times,serif" font-size="14.00">140188142718800</text>
</g>
<!-- 140188142718864ReLU -->
<g id="node14" class="node">
<title>140188142718864ReLU</title>
<ellipse fill="none" stroke="black" cx="1615.88" cy="-100.5" rx="124.28" ry="18"/>
<text text-anchor="middle" x="1615.88" y="-96.8" font-family="Times,serif" font-size="14.00">140188142718864ReLU</text>
</g>
<!-- 140188142718800&#45;&gt;140188142718864ReLU -->
<g id="edge12" class="edge">
<title>140188142718800&#45;&gt;140188142718864ReLU</title>
<path fill="none" stroke="black" d="M1455.79,-100.5C1464.06,-100.5 1472.65,-100.5 1481.37,-100.5"/>
<polygon fill="black" stroke="black" points="1481.64,-104 1491.64,-100.5 1481.64,-97 1481.64,-104"/>
</g>
<!-- 140188142718800+&#45;&gt;140188142718800 -->
<g id="edge3" class="edge">
<title>140188142718800+&#45;&gt;140188142718800</title>
<path fill="none" stroke="black" d="M1267.91,-100.5C1276.46,-100.5 1285.03,-100.5 1293.41,-100.5"/>
<polygon fill="black" stroke="black" points="1293.52,-104 1303.52,-100.5 1293.52,-97 1293.52,-104"/>
</g>
<!-- 140188142718288 -->
<g id="node11" class="node">
<title>140188142718288</title>
<polygon fill="none" stroke="black" points="866.56,-55.5 866.56,-91.5 1018.56,-91.5 1018.56,-55.5 866.56,-55.5"/>
<text text-anchor="middle" x="942.56" y="-69.8" font-family="Times,serif" font-size="14.00">140188142718288</text>
</g>
<!-- 140188142718288&#45;&gt;140188142718800+ -->
<g id="edge10" class="edge">
<title>140188142718288&#45;&gt;140188142718800+</title>
<path fill="none" stroke="black" d="M1018.71,-82.87C1033.54,-84.72 1049.29,-86.68 1064.69,-88.6"/>
<polygon fill="black" stroke="black" points="1064.39,-92.09 1074.75,-89.85 1065.26,-85.14 1064.39,-92.09"/>
</g>
<!-- 140188142718288+&#45;&gt;140188142718288 -->
<g id="edge4" class="edge">
<title>140188142718288+&#45;&gt;140188142718288</title>
<path fill="none" stroke="black" d="M830.73,-73.5C839.28,-73.5 847.85,-73.5 856.23,-73.5"/>
<polygon fill="black" stroke="black" points="856.34,-77 866.34,-73.5 856.34,-70 856.34,-77"/>
</g>
<!-- 140188142718864 -->
<g id="node13" class="node">
<title>140188142718864</title>
<polygon fill="none" stroke="black" points="1776.02,-82.5 1776.02,-118.5 1928.02,-118.5 1928.02,-82.5 1776.02,-82.5"/>
<text text-anchor="middle" x="1852.02" y="-96.8" font-family="Times,serif" font-size="14.00">140188142718864</text>
</g>
<!-- 140188142718864ReLU&#45;&gt;140188142718864 -->
<g id="edge5" class="edge">
<title>140188142718864ReLU&#45;&gt;140188142718864</title>
<path fill="none" stroke="black" d="M1740.12,-100.5C1748.82,-100.5 1757.47,-100.5 1765.88,-100.5"/>
<polygon fill="black" stroke="black" points="1766,-104 1776,-100.5 1766,-97 1766,-104"/>
</g>
<!-- 140188142757328 -->
<g id="node15" class="node">
<title>140188142757328</title>
<polygon fill="none" stroke="black" points="0,-28.5 0,-64.5 152,-64.5 152,-28.5 0,-28.5"/>
<text text-anchor="middle" x="76" y="-42.8" font-family="Times,serif" font-size="14.00">140188142757328</text>
</g>
<!-- 140188142757328&#45;&gt;140188142753680* -->
<g id="edge14" class="edge">
<title>140188142757328&#45;&gt;140188142753680*</title>
<path fill="none" stroke="black" d="M152.29,-56.06C166.66,-57.88 181.86,-59.81 196.7,-61.7"/>
<polygon fill="black" stroke="black" points="196.55,-65.2 206.91,-62.99 197.43,-58.26 196.55,-65.2"/>
</g>
</g>
</svg>
